<?xml version="1.0" standalone="no"?>
<!DOCTYPE svg PUBLIC "-//W3C//DTD SVG 20010904//EN"
 "http://www.w3.org/TR/2001/REC-SVG-20010904/DTD/svg10.dtd">
<svg version="1.0" xmlns="http://www.w3.org/2000/svg"
 width="360.000000pt" height="360.000000pt" viewBox="0 0 360.000000 360.000000"
 preserveAspectRatio="xMidYMid meet">

<g transform="translate(0.000000,360.000000) scale(0.100000,-0.100000)"
fill="#000000" stroke="none">
<path d="M1673 3295 c-12 -8 -25 -30 -28 -48 -24 -113 -168 -531 -253 -737
-303 -733 -707 -1319 -1135 -1649 l-107 -83 -1 -196 c-2 -228 -2 -222 18 -244
21 -24 46 -23 167 6 990 239 1994 245 2846 19 182 -48 201 -50 225 -23 20 22
20 39 20 1010 0 957 -1 989 -19 1009 -23 26 -67 27 -93 4 -11 -10 -58 -63
-105 -118 -106 -124 -288 -301 -431 -420 -60 -50 -115 -94 -123 -98 -12 -7
-14 72 -14 553 0 547 0 560 -20 580 -25 25 -72 26 -93 3 -8 -10 -30 -52 -48
-93 -83 -187 -227 -409 -395 -607 -95 -112 -284 -313 -295 -313 -5 0 -9 287
-9 714 l0 715 -22 15 c-28 20 -57 20 -85 1z m-23 -1289 l0 -784 -128 -42
c-431 -142 -852 -365 -1230 -653 -9 -7 -12 11 -12 86 l0 95 98 78 c468 375
896 1026 1191 1813 33 89 61 169 61 177 0 8 5 14 10 14 7 0 10 -267 10 -784z
m850 -276 l0 -780 -182 0 c-420 0 -996 -79 -1367 -186 -46 -14 -88 -23 -94
-21 -16 5 323 164 495 231 90 35 215 80 278 101 63 20 123 44 133 52 15 15 17
41 17 271 l0 254 114 109 c125 120 274 285 383 424 82 105 189 264 203 300 5
14 12 25 15 25 3 0 5 -351 5 -780z m790 -430 l0 -830 -27 11 c-36 14 -285 73
-388 92 -622 118 -1225 124 -1950 21 -72 -10 -54 0 50 29 408 114 1048 196
1533 197 142 0 132 -30 132 383 l0 342 88 67 c118 90 282 240 427 390 66 69
123 126 128 127 4 0 7 -372 7 -829z"/>
</g>
</svg>
