<svg width="18" height="18" viewBox="0 0 18 18" fill="none" xmlns="http://www.w3.org/2000/svg">
<path d="M11.3872 1.86342C11.6925 1.58352 11.7132 1.1091 11.4333 0.803758C11.1534 0.498419 10.6789 0.477791 10.3736 0.757686L1.86826 8.55425C-0.336299 10.5751 -0.342333 14.0487 1.8552 16.0772C3.84127 17.9105 6.9114 17.8805 8.86121 16.0086L16.8477 8.34161C18.0057 7.22997 18.0943 5.40762 17.0496 4.18887C15.9023 2.85038 13.8584 2.77188 12.6118 4.01844L6.85007 9.78022C6.55717 10.0731 6.55717 10.548 6.85007 10.8409C7.14296 11.1338 7.61783 11.1338 7.91073 10.8409L13.6725 5.0791C14.3012 4.45039 15.3321 4.48998 15.9107 5.16506C16.4376 5.77975 16.3929 6.69887 15.8089 7.25953L7.82241 14.9266C6.44486 16.249 4.27579 16.2702 2.87262 14.975C1.32005 13.5419 1.32431 11.0877 2.88185 9.65998L11.3872 1.86342Z" fill="#4C4C4C"/>
</svg>
