<svg width="13" height="13" viewBox="0 0 13 13" fill="none" xmlns="http://www.w3.org/2000/svg">
<path d="M3.81315 3.29167C3.81315 3.05004 4.00903 2.85417 4.25065 2.85417H4.83398C5.07561 2.85417 5.27148 3.05004 5.27148 3.29167C5.27148 3.53329 5.07561 3.72917 4.83398 3.72917H4.25065C4.00903 3.72917 3.81315 3.53329 3.81315 3.29167Z" fill="#4C4C4C"/>
<path d="M6.58398 2.85417C6.34236 2.85417 6.14648 3.05004 6.14648 3.29167C6.14648 3.53329 6.34236 3.72917 6.58398 3.72917H7.16732C7.40894 3.72917 7.60482 3.53329 7.60482 3.29167C7.60482 3.05004 7.40894 2.85417 7.16732 2.85417H6.58398Z" fill="#4C4C4C"/>
<path d="M3.81315 5.04167C3.81315 4.80004 4.00903 4.60417 4.25065 4.60417H4.83398C5.07561 4.60417 5.27148 4.80004 5.27148 5.04167C5.27148 5.28329 5.07561 5.47917 4.83398 5.47917H4.25065C4.00903 5.47917 3.81315 5.28329 3.81315 5.04167Z" fill="#4C4C4C"/>
<path d="M4.25065 6.35417C4.00903 6.35417 3.81315 6.55004 3.81315 6.79167C3.81315 7.03329 4.00903 7.22917 4.25065 7.22917H4.83398C5.07561 7.22917 5.27148 7.03329 5.27148 6.79167C5.27148 6.55004 5.07561 6.35417 4.83398 6.35417H4.25065Z" fill="#4C4C4C"/>
<path d="M3.81315 8.54167C3.81315 8.30004 4.00903 8.10417 4.25065 8.10417H4.83398C5.07561 8.10417 5.27148 8.30004 5.27148 8.54167C5.27148 8.78329 5.07561 8.97917 4.83398 8.97917H4.25065C4.00903 8.97917 3.81315 8.78329 3.81315 8.54167Z" fill="#4C4C4C"/>
<path d="M6.58398 4.60417C6.34236 4.60417 6.14648 4.80004 6.14648 5.04167C6.14648 5.28329 6.34236 5.47917 6.58398 5.47917H7.16732C7.40894 5.47917 7.60482 5.28329 7.60482 5.04167C7.60482 4.80004 7.40894 4.60417 7.16732 4.60417H6.58398Z" fill="#4C4C4C"/>
<path d="M6.14648 6.79167C6.14648 6.55004 6.34236 6.35417 6.58398 6.35417H7.16732C7.40894 6.35417 7.60482 6.55004 7.60482 6.79167C7.60482 7.03329 7.40894 7.22917 7.16732 7.22917H6.58398C6.34236 7.22917 6.14648 7.03329 6.14648 6.79167Z" fill="#4C4C4C"/>
<path d="M6.58398 8.10417C6.34236 8.10417 6.14648 8.30004 6.14648 8.54167C6.14648 8.78329 6.34236 8.97917 6.58398 8.97917H7.16732C7.40894 8.97917 7.60482 8.78329 7.60482 8.54167C7.60482 8.30004 7.40894 8.10417 7.16732 8.10417H6.58398Z" fill="#4C4C4C"/>
<path fill-rule="evenodd" clip-rule="evenodd" d="M2.06315 3C2.06315 1.79188 3.04253 0.8125 4.25065 0.8125H7.16732C8.37544 0.8125 9.35482 1.79188 9.35482 3V10C9.35482 11.2081 8.37544 12.1875 7.16732 12.1875H2.20898C1.00086 12.1875 0.0214844 11.2081 0.0214844 10V6.79167C0.0214844 5.63255 0.923021 4.68399 2.06315 4.60895V3ZM7.16732 11.3125H7.02148V10.875C7.02148 10.1501 6.43386 9.5625 5.70898 9.5625C4.98411 9.5625 4.39648 10.1501 4.39648 10.875V11.3125H4.25065C3.52578 11.3125 2.93815 10.7249 2.93815 10V3C2.93815 2.27513 3.52578 1.6875 4.25065 1.6875H7.16732C7.89219 1.6875 8.47982 2.27513 8.47982 3V10C8.47982 10.7249 7.89219 11.3125 7.16732 11.3125ZM6.14648 10.875V11.3125H5.27148V10.875C5.27148 10.6334 5.46736 10.4375 5.70898 10.4375C5.95061 10.4375 6.14648 10.6334 6.14648 10.875ZM2.06315 5.48718C1.40691 5.55972 0.896484 6.11609 0.896484 6.79167V10C0.896484 10.7249 1.48411 11.3125 2.20898 11.3125H2.50049C2.22588 10.9469 2.06315 10.4925 2.06315 10V5.48718Z" fill="#4C4C4C"/>
<path fill-rule="evenodd" clip-rule="evenodd" d="M11.4687 8.8008C11.4406 8.85665 11.4162 8.90421 11.3965 8.94199V11.75C11.3965 11.9916 11.2006 12.1875 10.959 12.1875C10.7174 12.1875 10.5215 11.9916 10.5215 11.75V8.94199C10.5018 8.90421 10.4774 8.85665 10.4493 8.8008C10.3748 8.6523 10.2739 8.44398 10.1688 8.20401C9.96332 7.73501 9.7229 7.10443 9.65031 6.55757C9.49493 5.38707 10.006 4.4373 10.3367 3.95906C10.6426 3.51681 11.2754 3.51681 11.5813 3.95906C11.912 4.43731 12.4231 5.38707 12.2677 6.55757C12.1951 7.10443 11.9547 7.73501 11.7492 8.20401C11.6441 8.44398 11.5433 8.6523 11.4687 8.8008ZM10.5177 6.44243C10.4168 5.68211 10.7002 5.02459 10.959 4.60571C11.2179 5.02459 11.5012 5.68211 11.4003 6.44243C11.3459 6.85245 11.1551 7.37632 10.959 7.8271C10.7629 7.37632 10.5721 6.85245 10.5177 6.44243Z" fill="#4C4C4C"/>
</svg>
