<svg width="12" height="12" viewBox="0 0 12 12" fill="none" xmlns="http://www.w3.org/2000/svg">
<path d="M3.08268 5.41667C3.40485 5.41667 3.66602 5.1555 3.66602 4.83333C3.66602 4.51117 3.40485 4.25 3.08268 4.25C2.76052 4.25 2.49935 4.51117 2.49935 4.83333C2.49935 5.1555 2.76052 5.41667 3.08268 5.41667Z" fill="#4C4C4C"/>
<path d="M6.58268 4.83333C6.58268 5.1555 6.32152 5.41667 5.99935 5.41667C5.67718 5.41667 5.41602 5.1555 5.41602 4.83333C5.41602 4.51117 5.67718 4.25 5.99935 4.25C6.32152 4.25 6.58268 4.51117 6.58268 4.83333Z" fill="#4C4C4C"/>
<path d="M8.91602 5.41667C9.23818 5.41667 9.49935 5.1555 9.49935 4.83333C9.49935 4.51117 9.23818 4.25 8.91602 4.25C8.59385 4.25 8.33268 4.51117 8.33268 4.83333C8.33268 5.1555 8.59385 5.41667 8.91602 5.41667Z" fill="#4C4C4C"/>
<path d="M3.66602 6.875C3.66602 7.19717 3.40485 7.45833 3.08268 7.45833C2.76052 7.45833 2.49935 7.19717 2.49935 6.875C2.49935 6.55283 2.76052 6.29167 3.08268 6.29167C3.40485 6.29167 3.66602 6.55283 3.66602 6.875Z" fill="#4C4C4C"/>
<path d="M5.99935 7.45833C6.32152 7.45833 6.58268 7.19717 6.58268 6.875C6.58268 6.55283 6.32152 6.29167 5.99935 6.29167C5.67718 6.29167 5.41602 6.55283 5.41602 6.875C5.41602 7.19717 5.67718 7.45833 5.99935 7.45833Z" fill="#4C4C4C"/>
<path d="M9.49935 6.875C9.49935 7.19717 9.23818 7.45833 8.91602 7.45833C8.59385 7.45833 8.33268 7.19717 8.33268 6.875C8.33268 6.55283 8.59385 6.29167 8.91602 6.29167C9.23818 6.29167 9.49935 6.55283 9.49935 6.875Z" fill="#4C4C4C"/>
<path d="M3.08268 9.5C3.40485 9.5 3.66602 9.23883 3.66602 8.91667C3.66602 8.5945 3.40485 8.33333 3.08268 8.33333C2.76052 8.33333 2.49935 8.5945 2.49935 8.91667C2.49935 9.23883 2.76052 9.5 3.08268 9.5Z" fill="#4C4C4C"/>
<path d="M6.58268 8.91667C6.58268 9.23883 6.32152 9.5 5.99935 9.5C5.67718 9.5 5.41602 9.23883 5.41602 8.91667C5.41602 8.5945 5.67718 8.33333 5.99935 8.33333C6.32152 8.33333 6.58268 8.5945 6.58268 8.91667Z" fill="#4C4C4C"/>
<path d="M8.91602 9.5C9.23818 9.5 9.49935 9.23883 9.49935 8.91667C9.49935 8.5945 9.23818 8.33333 8.91602 8.33333C8.59385 8.33333 8.33268 8.5945 8.33268 8.91667C8.33268 9.23883 8.59385 9.5 8.91602 9.5Z" fill="#4C4C4C"/>
<path fill-rule="evenodd" clip-rule="evenodd" d="M3.52018 0.75C3.52018 0.508375 3.32431 0.3125 3.08268 0.3125C2.84106 0.3125 2.64518 0.508375 2.64518 0.75H2.49935C1.21068 0.75 0.166016 1.79467 0.166016 3.08333V9.5C0.166016 10.7887 1.21068 11.8333 2.49935 11.8333H9.49935C10.788 11.8333 11.8327 10.7887 11.8327 9.5V3.08333C11.8327 1.79467 10.788 0.75 9.49935 0.75H9.35352C9.35352 0.508375 9.15764 0.3125 8.91602 0.3125C8.67439 0.3125 8.47852 0.508375 8.47852 0.75H3.52018ZM8.47852 2.5V1.625H3.52018V2.5C3.52018 2.74162 3.32431 2.9375 3.08268 2.9375C2.84106 2.9375 2.64518 2.74162 2.64518 2.5V1.625H2.49935C1.69393 1.625 1.04102 2.27792 1.04102 3.08333V9.5C1.04102 10.3054 1.69393 10.9583 2.49935 10.9583H9.49935C10.3048 10.9583 10.9577 10.3054 10.9577 9.5V3.08333C10.9577 2.27792 10.3048 1.625 9.49935 1.625H9.35352V2.5C9.35352 2.74162 9.15764 2.9375 8.91602 2.9375C8.67439 2.9375 8.47852 2.74162 8.47852 2.5Z" fill="#4C4C4C"/>
</svg>
