<svg width="32" height="32" viewBox="0 0 32 32" fill="none" xmlns="http://www.w3.org/2000/svg">
<rect x="0.5" y="0.5" width="31" height="31" rx="7.5" fill="white"/>
<rect x="0.5" y="0.5" width="31" height="31" rx="7.5" stroke="#EBEBEB"/>
<path d="M20.5 13.1361C18.682 13.7421 16.2579 11.318 16.8639 9.5M17.6109 8.75306L13.694 12.6699C11.9912 14.3727 10.7832 16.5063 10.1992 18.8425L10.0099 19.5995C9.95094 19.8354 10.1646 20.0491 10.4005 19.9901L11.1575 19.8008C13.4937 19.2168 15.6273 18.0088 17.3301 16.306L21.2469 12.3891C21.7291 11.907 22 11.253 22 10.5711C22 9.15112 20.8489 8 19.4289 8C18.747 8 18.093 8.27088 17.6109 8.75306Z" stroke="#4C4C4C" stroke-width="1.5"/>
<path d="M23 24H9" stroke="#4C4C4C" stroke-width="1.5" stroke-linecap="round" stroke-linejoin="round"/>
</svg>
