<svg width="19" height="18" viewBox="0 0 19 18" fill="none" xmlns="http://www.w3.org/2000/svg">
<path fill-rule="evenodd" clip-rule="evenodd" d="M16 4.5C16 6.98528 13.9853 9 11.5 9C9.01471 9 6.99999 6.98528 6.99999 4.5C6.99999 2.01472 9.01471 0 11.5 0C13.9853 0 16 2.01472 16 4.5ZM14.5 4.5C14.5 6.15685 13.1568 7.5 11.5 7.5C9.84313 7.5 8.49999 6.15685 8.49999 4.5C8.49999 2.84315 9.84313 1.5 11.5 1.5C13.1568 1.5 14.5 2.84315 14.5 4.5Z" fill="white"/>
<path fill-rule="evenodd" clip-rule="evenodd" d="M18.7 13.95C18.7 16.1867 15.4764 18 11.5 18C7.52354 18 4.29999 16.1867 4.29999 13.95C4.29999 11.7132 7.52354 9.89999 11.5 9.89999C15.4764 9.89999 18.7 11.7132 18.7 13.95ZM17.2 13.95C17.2 14.2858 16.9422 14.8953 15.8558 15.5064C14.8163 16.0911 13.2794 16.5 11.5 16.5C9.72059 16.5 8.18364 16.0911 7.14421 15.5064C6.05777 14.8953 5.79999 14.2858 5.79999 13.95C5.79999 13.6142 6.05777 13.0047 7.14421 12.3936C8.18364 11.8089 9.72059 11.4 11.5 11.4C13.2794 11.4 14.8163 11.8089 15.8558 12.3936C16.9422 13.0047 17.2 13.6142 17.2 13.95Z" fill="white"/>
<path d="M6.5 1.53222C6.5 1.24587 6.28635 1 6 1C3.79086 1 2 2.79086 2 5C2 7.20914 3.79086 9 6 9C6.28635 9 6.5 8.75413 6.5 8.46778V7.95333C6.5 7.69321 6.26011 7.5 6 7.5C4.61929 7.5 3.5 6.38071 3.5 5C3.5 3.61929 4.61929 2.5 6 2.5C6.26011 2.5 6.5 2.30679 6.5 2.04667V1.53222Z" fill="white"/>
<path d="M3.07814 10.5237C3.54336 10.3683 4 10.7343 4 11.2248C4 11.5715 3.7654 11.8704 3.43856 11.9859C3.13486 12.0932 2.8589 12.2145 2.61496 12.3458C1.63608 12.8729 1.5 13.3497 1.5 13.5C1.5 13.6503 1.63608 14.1271 2.61496 14.6542C2.8589 14.7855 3.13486 14.9068 3.43856 15.0141C3.7654 15.1296 4 15.4285 4 15.7752C4 16.2657 3.54336 16.6317 3.07814 16.4763C1.23046 15.8591 0 14.7569 0 13.5C0 12.2431 1.23046 11.1409 3.07814 10.5237Z" fill="white"/>
</svg>
