<svg width="20" height="20" viewBox="0 0 20 20" fill="none" xmlns="http://www.w3.org/2000/svg">
<path fill-rule="evenodd" clip-rule="evenodd" d="M10.1922 6.65653C8.60305 5.58539 6.5 6.74762 6.5 8.64364V12.3566C6.5 14.2526 8.60305 15.4149 10.1922 14.3437L12.9465 12.4872C14.3512 11.5405 14.3512 9.45976 12.9465 8.51301L10.1922 6.65653ZM8 8.64364C8 7.91873 8.78608 7.51768 9.35384 7.90036L12.1082 9.75685C12.6306 10.109 12.6306 10.8913 12.1082 11.2434L9.35384 13.0999C8.78608 13.4826 8 13.0815 8 12.3566V8.64364Z" fill="white"/>
<path fill-rule="evenodd" clip-rule="evenodd" d="M4.50014 0C2.01478 0 0 2.01478 0 4.50015V12.7611C0 15.3844 2.12665 17.5111 4.75 17.5111H9.25V18.5002H7C6.58579 18.5002 6.25 18.836 6.25 19.2502C6.25 19.6645 6.58579 20.0002 7 20.0002H13C13.4142 20.0002 13.75 19.6645 13.75 19.2502C13.75 18.836 13.4142 18.5002 13 18.5002H10.75V17.5111H15.25C17.8734 17.5111 20 15.3844 20 12.7611V4.50015C20 2.01478 17.9852 0 15.4999 0H4.50014ZM18.4055 3.75015H1.59451C1.92754 2.45614 3.10218 1.5 4.50014 1.5H15.4999C16.8978 1.5 18.0725 2.45614 18.4055 3.75015ZM1.5 5.25015H18.5V12.7611C18.5 14.556 17.0449 16.0111 15.25 16.0111H4.75C2.95507 16.0111 1.5 14.556 1.5 12.7611V5.25015Z" fill="white"/>
</svg>
