<svg width="18" height="20" viewBox="0 0 18 20" fill="none" xmlns="http://www.w3.org/2000/svg">
<path fill-rule="evenodd" clip-rule="evenodd" d="M8 10C10.7614 10 13 7.76142 13 5C13 2.23858 10.7614 0 8 0C5.23858 0 3 2.23858 3 5C3 7.76142 5.23858 10 8 10ZM8 8.5C9.933 8.5 11.5 6.933 11.5 5C11.5 3.067 9.933 1.5 8 1.5C6.067 1.5 4.5 3.067 4.5 5C4.5 6.933 6.067 8.5 8 8.5Z" fill="white"/>
<path d="M13.8839 6.88389C14.1768 6.59099 14.6517 6.59099 14.9445 6.88389L15.8284 7.76777L16.7123 6.88389C17.0052 6.59099 17.4801 6.59099 17.773 6.88389C18.0659 7.17678 18.0659 7.65165 17.773 7.94455L16.8891 8.82843L17.773 9.71231C18.0659 10.0052 18.0659 10.4801 17.773 10.773C17.4801 11.0659 17.0052 11.0659 16.7123 10.773L15.8284 9.88909L14.9445 10.773C14.6517 11.0659 14.1768 11.0659 13.8839 10.773C13.591 10.4801 13.591 10.0052 13.8839 9.71231L14.7678 8.82843L13.8839 7.94455C13.591 7.65165 13.591 7.17678 13.8839 6.88389Z" fill="white"/>
<path fill-rule="evenodd" clip-rule="evenodd" d="M16 15.5C16 17.9853 12.4183 20 8 20C3.58172 20 0 17.9853 0 15.5C0 13.0147 3.58172 11 8 11C12.4183 11 16 13.0147 16 15.5ZM14.5 15.5C14.5 15.96 14.1527 16.6821 12.9215 17.3746C11.7373 18.0407 10.0003 18.5 8 18.5C5.99969 18.5 4.26273 18.0407 3.07854 17.3746C1.84733 16.6821 1.5 15.96 1.5 15.5C1.5 15.04 1.84733 14.3179 3.07854 13.6254C4.26273 12.9593 5.99969 12.5 8 12.5C10.0003 12.5 11.7373 12.9593 12.9215 13.6254C14.1527 14.3179 14.5 15.04 14.5 15.5Z" fill="white"/>
</svg>
