<svg width="22" height="20" viewBox="0 0 22 20" fill="none" xmlns="http://www.w3.org/2000/svg">
<path fill-rule="evenodd" clip-rule="evenodd" d="M1.75 19.5C0.783502 19.5 0 18.7165 0 17.75V10.75C0 9.7835 0.783502 9 1.75 9H6V1.75C6 0.783502 6.7835 0 7.75 0H13.75C14.7165 0 15.5 0.783502 15.5 1.75V5H19.75C20.7165 5 21.5 5.7835 21.5 6.75V17.75C21.5 18.7165 20.7165 19.5 19.75 19.5H1.75ZM7.75 1.5C7.61193 1.5 7.5 1.61193 7.5 1.75V18H14V1.75C14 1.61193 13.8881 1.5 13.75 1.5H7.75ZM15.5 6.5H19.75C19.8881 6.5 20 6.61193 20 6.75V17.75C20 17.8881 19.8881 18 19.75 18H15.5V6.5ZM6 10.5H1.75C1.61193 10.5 1.5 10.6119 1.5 10.75V17.75C1.5 17.8881 1.61193 18 1.75 18H6V10.5Z" fill="white"/>
</svg>
