<svg width="19" height="20" viewBox="0 0 19 20" fill="none" xmlns="http://www.w3.org/2000/svg">
<path fill-rule="evenodd" clip-rule="evenodd" d="M8 10C10.7614 10 13 7.76142 13 5C13 2.23858 10.7614 0 8 0C5.23858 0 3 2.23858 3 5C3 7.76142 5.23858 10 8 10ZM8 8.5C9.933 8.5 11.5 6.933 11.5 5C11.5 3.067 9.933 1.5 8 1.5C6.067 1.5 4.5 3.067 4.5 5C4.5 6.933 6.067 8.5 8 8.5Z" fill="white"/>
<path d="M18.5303 7.46967C18.8232 7.76256 18.8232 8.23744 18.5303 8.53033L15.5541 11.5065C15.2684 11.7922 14.8078 11.8003 14.5123 11.5247L12.9885 10.1036C12.6856 9.8211 12.669 9.34652 12.9515 9.04359C13.234 8.74066 13.7086 8.72411 14.0115 9.00661L15.0056 9.93371L17.4697 7.46967C17.7626 7.17678 18.2374 7.17678 18.5303 7.46967Z" fill="white"/>
<path fill-rule="evenodd" clip-rule="evenodd" d="M16 15.5C16 17.9853 12.4183 20 8 20C3.58172 20 0 17.9853 0 15.5C0 13.0147 3.58172 11 8 11C12.4183 11 16 13.0147 16 15.5ZM14.5 15.5C14.5 15.96 14.1527 16.6821 12.9215 17.3746C11.7373 18.0407 10.0003 18.5 8 18.5C5.99969 18.5 4.26273 18.0407 3.07854 17.3746C1.84733 16.6821 1.5 15.96 1.5 15.5C1.5 15.04 1.84733 14.3179 3.07854 13.6254C4.26273 12.9593 5.99969 12.5 8 12.5C10.0003 12.5 11.7373 12.9593 12.9215 13.6254C14.1527 14.3179 14.5 15.04 14.5 15.5Z" fill="white"/>
</svg>
