<svg width="40" height="40" viewBox="0 0 40 40" fill="none" xmlns="http://www.w3.org/2000/svg">
<rect width="40" height="40" rx="8" fill="#60B527"/>
<path fill-rule="evenodd" clip-rule="evenodd" d="M24.5 15.5C24.5 17.9853 22.4853 20 20 20C17.5148 20 15.5 17.9853 15.5 15.5C15.5 13.0147 17.5148 11 20 11C22.4853 11 24.5 13.0147 24.5 15.5ZM23 15.5C23 17.1569 21.6569 18.5 20 18.5C18.3432 18.5 17 17.1569 17 15.5C17 13.8431 18.3432 12.5 20 12.5C21.6569 12.5 23 13.8431 23 15.5Z" fill="white"/>
<path fill-rule="evenodd" clip-rule="evenodd" d="M27.2 24.95C27.2 27.1867 23.9765 29 20 29C16.0236 29 12.8 27.1867 12.8 24.95C12.8 22.7132 16.0236 20.9 20 20.9C23.9765 20.9 27.2 22.7132 27.2 24.95ZM25.7 24.95C25.7 25.2858 25.4423 25.8953 24.3558 26.5064C23.3164 27.0911 21.7794 27.5 20 27.5C18.2206 27.5 16.6837 27.0911 15.6443 26.5064C14.5578 25.8953 14.3 25.2858 14.3 24.95C14.3 24.6142 14.5578 24.0047 15.6443 23.3936C16.6837 22.8089 18.2206 22.4 20 22.4C21.7794 22.4 23.3164 22.8089 24.3558 23.3936C25.4423 24.0047 25.7 24.6142 25.7 24.95Z" fill="white"/>
<path d="M26.5001 15.5C26.5001 15.0595 26.3577 14.6522 26.1164 14.3218C25.8943 14.0177 25.5885 13.7786 25.2328 13.6385L25.2074 13.6282C25.1621 13.6094 25.1174 13.5882 25.0739 13.5648C25.0279 13.5401 24.9833 13.513 24.9404 13.4835C24.6878 13.3095 24.5001 13.0545 24.5001 12.75C24.5001 12.3358 24.8398 11.9916 25.2446 12.0793C26.4433 12.339 27.4133 13.2129 27.8085 14.3549C27.9326 14.7137 28.0001 15.099 28.0001 15.5C28.0001 15.901 27.9326 16.2863 27.8085 16.645C27.4133 17.7871 26.4433 18.6609 25.2446 18.9206C24.8398 19.0083 24.5001 18.6642 24.5001 18.25C24.5001 17.9455 24.6878 17.6905 24.9404 17.5165C24.9833 17.487 25.028 17.4598 25.0739 17.4351C25.1175 17.4117 25.1621 17.3906 25.2074 17.3718L25.2328 17.3615C25.5885 17.2214 25.8943 16.9823 26.1164 16.6782C26.3577 16.3477 26.5001 15.9405 26.5001 15.5Z" fill="white"/>
<path d="M28.5001 24.5C28.5001 24.5872 28.4543 24.7843 28.2247 25.0373C28.14 25.1306 28.0303 25.2315 27.8888 25.3373C27.8629 25.3567 27.8378 25.3772 27.8138 25.3987C27.7893 25.4207 27.7658 25.4438 27.7435 25.4679C27.5947 25.6285 27.5001 25.8327 27.5001 26.054C27.5001 26.6262 28.0873 27.0129 28.5632 26.695C28.6401 26.6437 28.7144 26.5911 28.7859 26.5374L28.8146 26.5157C29.0302 26.3511 29.2202 26.1761 29.3813 25.9924C29.7781 25.5397 30.0001 25.0338 30.0001 24.5C30.0001 23.9662 29.7781 23.4603 29.3813 23.0076C29.2201 22.8239 29.0302 22.6489 28.8146 22.4843L28.7859 22.4626C28.7144 22.4089 28.6401 22.3563 28.5632 22.305C28.0873 21.9871 27.5001 22.3738 27.5001 22.946C27.5001 23.1673 27.5947 23.3715 27.7435 23.5321C27.7658 23.5562 27.7893 23.5793 27.8138 23.6013C27.8378 23.6228 27.8629 23.6433 27.8888 23.6627C28.0303 23.7685 28.14 23.8694 28.2247 23.9627C28.4543 24.2157 28.5001 24.4128 28.5001 24.5Z" fill="white"/>
<path d="M13.5 15.4998C13.5 15.0593 13.6424 14.6521 13.8837 14.3216C14.1058 14.0175 14.4116 13.7784 14.7672 13.6383L14.7926 13.6281C14.8379 13.6092 14.8826 13.5881 14.9261 13.5647C14.9721 13.54 15.0168 13.5128 15.0596 13.4833C15.3122 13.3093 15.5 13.0544 15.5 12.7498C15.5 12.3356 15.1603 11.9915 14.7555 12.0792C13.5567 12.3389 12.5868 13.2127 12.1916 14.3548C12.0674 14.7136 12 15.0988 12 15.4998C12 15.9008 12.0674 16.2861 12.1916 16.6449C12.5868 17.787 13.5567 18.6608 14.7555 18.9205C15.1603 19.0082 15.5 18.664 15.5 18.2498C15.5 17.9453 15.3122 17.6904 15.0596 17.5164C15.0168 17.4869 14.9721 17.4597 14.9261 17.435C14.8826 17.4116 14.8379 17.3904 14.7926 17.3716L14.7672 17.3613C14.4116 17.2212 14.1058 16.9822 13.8837 16.678C13.6424 16.3476 13.5 15.9403 13.5 15.4998Z" fill="white"/>
<path d="M11.5 24.4998C11.5 24.587 11.5458 24.7841 11.7754 25.0372C11.8601 25.1305 11.9697 25.2314 12.1113 25.3372C12.1372 25.3566 12.1622 25.3771 12.1862 25.3986C12.2108 25.4206 12.2343 25.4437 12.2566 25.4677C12.4053 25.6283 12.5 25.8326 12.5 26.0538C12.5 26.6261 11.9127 27.0127 11.4369 26.6949C11.36 26.6435 11.2857 26.5909 11.2142 26.5372L11.1855 26.5155C10.9699 26.351 10.7799 26.176 10.6188 25.9922C10.2219 25.5395 10 25.0336 10 24.4998C10 23.966 10.2219 23.4602 10.6188 23.0075C10.7799 22.8237 10.9699 22.6487 11.1855 22.4842L11.2142 22.4624C11.2857 22.4088 11.36 22.3562 11.4369 22.3048C11.9127 21.987 12.5 22.3736 12.5 22.9459C12.5 23.1671 12.4053 23.3714 12.2566 23.532C12.2343 23.556 12.2108 23.5791 12.1862 23.6011C12.1622 23.6226 12.1372 23.6431 12.1113 23.6625C11.9697 23.7683 11.8601 23.8692 11.7754 23.9625C11.5458 24.2156 11.5 24.4127 11.5 24.4998Z" fill="white"/>
</svg>
