<svg width="14" height="14" viewBox="0 0 14 14" fill="none" xmlns="http://www.w3.org/2000/svg">
<path fill-rule="evenodd" clip-rule="evenodd" d="M9.91732 4.08268C9.91732 5.69351 8.61148 6.99935 7.00065 6.99935C5.38982 6.99935 4.08398 5.69351 4.08398 4.08268C4.08398 2.47185 5.38982 1.16602 7.00065 1.16602C8.61148 1.16602 9.91732 2.47185 9.91732 4.08268ZM9.04232 4.08268C9.04232 5.21026 8.12823 6.12435 7.00065 6.12435C5.87307 6.12435 4.95898 5.21026 4.95898 4.08268C4.95898 2.9551 5.87307 2.04102 7.00065 2.04102C8.12823 2.04102 9.04232 2.9551 9.04232 4.08268Z" fill="#4C4C4C"/>
<path fill-rule="evenodd" clip-rule="evenodd" d="M11.6673 10.2077C11.6673 11.6574 9.57798 12.8327 7.00065 12.8327C4.42332 12.8327 2.33398 11.6574 2.33398 10.2077C2.33398 8.75794 4.42332 7.58268 7.00065 7.58268C9.57798 7.58268 11.6673 8.75794 11.6673 10.2077ZM10.7923 10.2077C10.7923 10.476 10.5897 10.8972 9.8715 11.3012C9.18072 11.6898 8.1675 11.9577 7.00065 11.9577C5.8338 11.9577 4.82058 11.6898 4.1298 11.3012C3.41159 10.8972 3.20898 10.476 3.20898 10.2077C3.20898 9.93932 3.41159 9.51815 4.1298 9.11416C4.82058 8.72559 5.8338 8.45768 7.00065 8.45768C8.1675 8.45768 9.18072 8.72559 9.8715 9.11416C10.5897 9.51815 10.7923 9.93932 10.7923 10.2077Z" fill="#4C4C4C"/>
</svg>
